<svg xmlns="http://www.w3.org/2000/svg" viewBox="0 0 512 481.07"><defs><style>.cls-1{fill:#fff;}</style></defs><title>goods2</title><g id="レイヤー_2" data-name="レイヤー 2"><g id="_2" data-name="2"><path class="cls-1" d="M488.77,110.38l-40.09-33-1.5-30.9H344.55a93.44,93.44,0,0,1,5.32,23.71H424.6L425.51,89,449,108.36H334.49V78.5a78.49,78.49,0,1,0-157,0v29.86H62.45l22.83-19.3L87,70.15h75.17a93.13,93.13,0,0,1,5.31-23.71H65.26L62.54,77.25,23.23,110.47l-.32,5L0,481.07H512Zm-293-31.88a60.28,60.28,0,0,1,120.55,0v29.86H195.72ZM25.23,457.37l20.89-333.2H177.51v65.32a22.5,22.5,0,1,0,18.21,0V124.16H316.27v65.33a22.5,22.5,0,1,0,18.22,0V124.16H465.88l20.89,333.2H25.23Z"/><path class="cls-1" d="M286.69,46.44H225.31l-.76.63a44.23,44.23,0,0,0-12.2,23.08h87.3A44.17,44.17,0,0,0,287.43,47Z"/></g></g></svg>