<svg xmlns="http://www.w3.org/2000/svg" viewBox="0 0 512 497.24"><defs><style>.cls-1{fill:#fff;}</style></defs><title>theater</title><g id="レイヤー_2" data-name="レイヤー 2"><g id="_2" data-name="2"><path class="cls-1" d="M232.77,0H.08V219.19H96.65C175.35,191,232.77,103.59,232.77,0Z"/><path class="cls-1" d="M152.42,354.24c-7.15-40.3-27.21-63.22-55.86-96.37H0V376.54A58,58,0,0,1,110.26,390h21.09A56.8,56.8,0,0,1,152.42,354.24Z"/><path class="cls-1" d="M279.32,0c0,103.58,57.43,191,136.11,219.19H512V0Z"/><path class="cls-1" d="M458.91,341.75a58.09,58.09,0,0,1,53,34.38V257.87H415.33c-28.44,33.15-48.49,56.07-55.64,96.37A56.86,56.86,0,0,1,380.76,390h21.06A57.89,57.89,0,0,1,458.91,341.75Z"/><path class="cls-1" d="M70.84,432.24a37.36,37.36,0,1,0-35.34,0A52.94,52.94,0,0,0,.08,482.09v15.15H106.27V482.09A53,53,0,0,0,70.84,432.24Z"/><path class="cls-1" d="M206.08,432.24a37.37,37.37,0,1,0-35.33,0,52.92,52.92,0,0,0-35.42,49.85v15.15H241.51V482.09A52.94,52.94,0,0,0,206.08,432.24Z"/><path class="cls-1" d="M341.33,432.24a37.36,37.36,0,1,0-35.34,0,53,53,0,0,0-35.43,49.85v15.15h106.2V482.09A53,53,0,0,0,341.33,432.24Z"/><path class="cls-1" d="M476.55,432.24a37.36,37.36,0,1,0-35.33,0,52.93,52.93,0,0,0-35.42,49.85v15.15H512V482.09A53,53,0,0,0,476.55,432.24Z"/></g></g></svg>